<svg width="24" height="24" viewBox="0 0 24 24" fill="none" xmlns="http://www.w3.org/2000/svg">
<path d="M10.7976 2.86559C11.128 2.56875 11.5565 2.40454 12.0006 2.40454C12.4448 2.40454 12.8732 2.56875 13.2036 2.86559L19.8036 8.79599C19.9913 8.96474 20.1413 9.17107 20.2441 9.40157C20.3468 9.63208 20.3999 9.88162 20.4 10.134V18.6C20.4 19.0774 20.2104 19.5352 19.8728 19.8728C19.5352 20.2103 19.0774 20.4 18.6 20.4H15.6C15.1226 20.4 14.6648 20.2103 14.3272 19.8728C13.9896 19.5352 13.8 19.0774 13.8 18.6V14.4C13.8 14.2409 13.7368 14.0882 13.6243 13.9757C13.5117 13.8632 13.3591 13.8 13.2 13.8H10.8C10.6409 13.8 10.4883 13.8632 10.3757 13.9757C10.2632 14.0882 10.2 14.2409 10.2 14.4V18.6C10.2 19.0774 10.0104 19.5352 9.6728 19.8728C9.33523 20.2103 8.8774 20.4 8.40001 20.4H5.40001C4.92262 20.4 4.46478 20.2103 4.12721 19.8728C3.78965 19.5352 3.60001 19.0774 3.60001 18.6V10.134C3.60001 9.62399 3.81601 9.13799 4.19761 8.79599L10.7976 2.86559ZM12.4008 3.75839C12.2907 3.65955 12.148 3.60489 12 3.60489C11.852 3.60489 11.7093 3.65955 11.5992 3.75839L4.99921 9.68879C4.93668 9.74491 4.88664 9.81354 4.85233 9.89024C4.81801 9.96693 4.80019 10.05 4.80001 10.134V18.6C4.80001 18.7591 4.86322 18.9117 4.97574 19.0243C5.08826 19.1368 5.24088 19.2 5.40001 19.2H8.40001C8.55914 19.2 8.71175 19.1368 8.82427 19.0243C8.93679 18.9117 9.00001 18.7591 9.00001 18.6V14.4C9.00001 13.9226 9.18965 13.4648 9.52721 13.1272C9.86478 12.7896 10.3226 12.6 10.8 12.6H13.2C13.6774 12.6 14.1352 12.7896 14.4728 13.1272C14.8104 13.4648 15 13.9226 15 14.4V18.6C15 18.7591 15.0632 18.9117 15.1757 19.0243C15.2883 19.1368 15.4409 19.2 15.6 19.2H18.6C18.7591 19.2 18.9117 19.1368 19.0243 19.0243C19.1368 18.9117 19.2 18.7591 19.2 18.6V10.134C19.1998 10.05 19.182 9.96693 19.1477 9.89024C19.1134 9.81354 19.0633 9.74491 19.0008 9.68879L12.4008 3.75839Z" fill="#545454"/>
</svg>
