<svg width="24" height="24" viewBox="0 0 24 24" fill="none" xmlns="http://www.w3.org/2000/svg">
<g clip-path="url(#clip0_7_19)">
<path d="M2.5 8C2.5 6.60493 2.96669 5.21439 3.76968 4.18197C4.56845 3.15497 5.68212 2.5 7 2.5C8.42738 2.5 9.11438 2.73427 9.6893 2.96424C9.75054 2.98873 9.81146 3.01365 9.87263 3.03866C10.4268 3.26529 11.0007 3.5 12 3.5C12.9993 3.5 13.5732 3.26529 14.1274 3.03866C14.1885 3.01365 14.2495 2.98873 14.3107 2.96424C14.8856 2.73427 15.5726 2.5 17 2.5C18.3179 2.5 19.4315 3.15497 20.2303 4.18197C21.0333 5.21439 21.5 6.60493 21.5 8C21.5 8.9864 21.2641 10.1812 20.9012 11.2564C20.5332 12.347 20.0631 13.2298 19.6464 13.6464C19.4514 13.8415 19.2959 14.1343 19.1658 14.4287C19.0292 14.7375 18.8944 15.1106 18.76 15.5138C18.6309 15.901 18.4985 16.3273 18.3628 16.7645L18.3448 16.8224C18.2021 17.2818 18.0551 17.7537 17.9007 18.2169C17.5894 19.1507 17.2588 20.015 16.8959 20.6393C16.7145 20.9513 16.5394 21.1776 16.3756 21.3212C16.2153 21.4616 16.0933 21.5 16 21.5C15.021 21.5 14.4912 21.1372 14.1587 20.6315C13.7976 20.0824 13.6349 19.3119 13.5448 18.4481C13.509 18.1044 13.4858 17.7619 13.4629 17.4233C13.4574 17.342 13.4519 17.2609 13.4462 17.18C13.4177 16.771 13.3849 16.3646 13.3229 16.0081C13.2625 15.6607 13.1654 15.3006 12.9727 15.0186C12.7578 14.7043 12.4307 14.5 12 14.5C11.5693 14.5 11.2422 14.7043 11.0273 15.0186C10.8346 15.3006 10.7375 15.6607 10.6771 16.0081C10.6151 16.3646 10.5823 16.771 10.5538 17.18C10.5481 17.2609 10.5426 17.342 10.5371 17.4233C10.5142 17.7619 10.491 18.1044 10.4552 18.4481C10.3651 19.3119 10.2024 20.0824 9.8413 20.6315C9.50876 21.1372 8.97899 21.5 8 21.5C7.9067 21.5 7.78472 21.4616 7.62441 21.3212C7.46057 21.1776 7.28552 20.9513 7.10413 20.6393C6.74115 20.015 6.41063 19.1507 6.09934 18.2169C5.94495 17.7537 5.79794 17.2818 5.65523 16.8224L5.63723 16.7644C5.50146 16.3273 5.36906 15.901 5.23997 15.5138C5.10559 15.1106 4.97081 14.7375 4.83424 14.4287C4.70409 14.1343 4.54859 13.8415 4.35355 13.6464C3.93687 13.2298 3.4668 12.347 3.09875 11.2564C2.73591 10.1812 2.5 8.9864 2.5 8Z" stroke="#545454"/>
</g>
<defs>
<clipPath id="clip0_7_19">
<rect width="24" height="24" fill="white"/>
</clipPath>
</defs>
</svg>
